<svg width="1920" height="1135" viewBox="0 0 1920 1135" fill="none" xmlns="http://www.w3.org/2000/svg">
<path d="M1758.43 233.082C1966.03 253.822 2182.4 207.743 2264.63 182.111L2322.6 162.111M1758.43 233.082C1498.93 207.157 1429.28 124.724 1473.63 39.0824C1517.98 -46.5592 1697.74 8.55144 1758.43 233.082ZM1758.43 233.082C1787.99 297.508 1823.15 466.193 1727.26 625.533C1631.37 784.873 1359.49 881.699 1235.54 910.194C1050.97 938.638 628.282 983.8 414.129 936.896C325.796 915.656 139.529 858.674 101.129 800.674C53.1294 728.174 120.129 614.174 242.629 697.174C340.629 763.574 315.129 939.508 290.129 1019.17C271.929 1077.17 172.229 1127.27 -17.3706 1133.67" stroke="#D1D1D1" stroke-dasharray="8 8"/>
</svg>
